<?xml version="1.0" encoding="UTF-8"?>
<!-- Generated by Pixelmator Pro 3.5.3 -->
<svg width="764" height="953" viewBox="0 0 764 953" xmlns="http://www.w3.org/2000/svg">
    <g id="Icons">
        <g id="XMLID727">
            <path id="XMLID1310" fill="#adc4d9" stroke="none" d="M 686.166626 442.083344 C 686.166626 385.833313 640.333374 340 584.083374 340 L 179.916672 340 C 123.666672 340 77.833328 385.833313 77.833328 442.083344 L 77.833328 815 C 77.833328 871.25 123.666672 917.083313 179.916672 917.083313 L 586.166626 917.083313 C 642.416687 917.083313 688.25 871.25 688.25 815 L 688.25 442.083344 Z"/>
            <path id="XMLID1309" fill="#c0dceb" stroke="none" d="M 584.083374 342.083313 L 179.916672 342.083313 C 123.666672 342.083313 77.833328 387.916687 77.833328 444.166656 L 77.833328 494.166687 C 77.833328 437.916687 123.666672 392.083313 179.916672 392.083313 L 586.166626 392.083313 C 642.416687 392.083313 688.25 437.916687 688.25 494.166687 L 688.25 444.166656 C 686.166626 385.833313 640.333374 342.083313 584.083374 342.083313 Z"/>
            <path id="XMLID1308" fill="#8ca4b8" stroke="none" d="M 686.166626 671.25 L 448.666687 671.25 C 411.166656 671.25 382 640 382 604.583374 L 382 342.083313 L 584.083374 342.083313 C 640.333374 342.083313 686.166626 387.916687 686.166626 444.166656 L 686.166626 671.25 Z"/>
            <path id="XMLID1307" fill="#adc4d9" stroke="none" d="M 682.000061 412.916626 C 669.5 371.25 629.916687 342.083313 584.083374 342.083313 L 382 342.083313 L 382 392.083313 L 584.083374 392.083313 C 640.333374 392.083313 686.166626 437.916687 686.166626 494.166687 L 686.166626 444.166656 C 686.166626 431.666687 684.083313 421.25 682.000061 412.916626 Z"/>
            <path id="XMLID1306" fill="none" stroke="#45413c" stroke-width="20.833334" stroke-linecap="round" stroke-linejoin="round" d="M 686.166626 442.083344 C 686.166626 385.833313 640.333374 340 584.083374 340 L 179.916672 340 C 123.666672 340 77.833328 385.833313 77.833328 442.083344 L 77.833328 815 C 77.833328 871.25 123.666672 917.083313 179.916672 917.083313 L 586.166626 917.083313 C 642.416687 917.083313 688.25 871.25 688.25 815 L 688.25 442.083344 Z"/>
            <path id="XMLID1305" fill="#45413c" stroke="none" opacity="0.15" visibility="hidden" d="M 704.916687 937.916687 C 704.916687 955.175537 560.341919 969.166687 382 969.166687 C 203.658051 969.166687 59.083332 955.175537 59.083332 937.916687 C 59.083332 920.657776 203.658051 906.666687 382 906.666687 C 560.341919 906.666687 704.916687 920.657776 704.916687 937.916687 Z"/>
            <path id="XMLID1304" fill="#c0dceb" stroke="none" d="M 584.083374 908.75 C 584.083374 927.5 569.5 942.083374 550.749939 942.083374 L 213.249985 942.083374 C 194.5 942.083374 179.916672 927.5 179.916672 908.75 L 179.916672 790 C 179.916672 771.25 194.5 756.666626 213.249985 756.666626 L 550.749939 756.666626 C 569.5 756.666626 584.083374 771.25 584.083374 790 L 584.083374 908.75 Z"/>
            <path id="XMLID1303" fill="#daedf7" stroke="none" d="M 584.083374 790 C 584.083374 771.25 569.5 756.666626 550.749939 756.666626 L 213.249985 756.666626 C 194.5 756.666626 179.916672 771.25 179.916672 790 L 179.916672 831.666687 C 179.916672 812.916687 194.5 798.333313 213.249985 798.333313 L 550.749939 798.333313 C 569.5 798.333313 584.083374 812.916687 584.083374 831.666687 L 584.083374 790 Z"/>
            <path id="XMLID1302" fill="none" stroke="#45413c" stroke-width="20.833334" stroke-linecap="round" stroke-linejoin="round" d="M 584.083374 908.75 C 584.083374 927.5 569.5 942.083374 550.749939 942.083374 L 213.249985 942.083374 C 194.5 942.083374 179.916672 927.5 179.916672 908.75 L 179.916672 790 C 179.916672 771.25 194.5 756.666626 213.249985 756.666626 L 550.749939 756.666626 C 569.5 756.666626 584.083374 771.25 584.083374 790 L 584.083374 908.75 Z"/>
            <path id="XMLID1301" fill="#ffffff" stroke="#45413c" stroke-width="20.833334" stroke-linecap="round" stroke-linejoin="round" d="M 307 510.833344 C 307 558.00769 268.75766 596.25 221.583313 596.25 C 174.408997 596.25 136.166656 558.00769 136.166656 510.833344 C 136.166656 463.658997 174.408997 425.416687 221.583313 425.416687 C 268.75766 425.416687 307 463.658997 307 510.833344 Z"/>
            <path id="XMLID1300" fill="#00dba8" stroke="#45413c" stroke-width="20.833334" stroke-linecap="round" stroke-linejoin="round" d="M 263.249969 510.833344 C 263.249969 533.845215 244.5952 552.5 221.583313 552.5 C 198.571472 552.5 179.916672 533.845215 179.916672 510.833344 C 179.916672 487.821442 198.571472 469.166656 221.583313 469.166656 C 244.5952 469.166656 263.249969 487.821442 263.249969 510.833344 Z"/>
            <path id="XMLID1299" fill="#ffffff" stroke="#45413c" stroke-width="20.833334" stroke-linecap="round" stroke-linejoin="round" d="M 627.833313 510.833344 C 627.833313 558.00769 589.591003 596.25 542.416687 596.25 C 495.24234 596.25 457 558.00769 457 510.833344 C 457 463.658997 495.24234 425.416687 542.416687 425.416687 C 589.591003 425.416687 627.833313 463.658997 627.833313 510.833344 Z"/>
            <path id="XMLID1298" fill="#00b8f0" stroke="#45413c" stroke-width="20.833334" stroke-linecap="round" stroke-linejoin="round" d="M 575.75 510.833344 C 575.75 529.242798 560.826172 544.166687 542.416687 544.166687 C 524.007202 544.166687 509.083344 529.242798 509.083344 510.833344 C 509.083344 492.423828 524.007202 477.5 542.416687 477.5 C 560.826172 477.5 575.75 492.423828 575.75 510.833344 Z"/>
            <g id="XMLID1297">
                <path id="XMLID781" fill="#c0dceb" stroke="none" d="M 229.916687 790 C 229.916687 794.602417 226.185715 798.333313 221.583313 798.333313 C 216.980972 798.333313 213.249985 794.602417 213.249985 790 C 213.249985 785.397583 216.980972 781.666687 221.583313 781.666687 C 226.185715 781.666687 229.916687 785.397583 229.916687 790 Z"/>
                <path id="XMLID780" fill="#45413c" stroke="none" d="M 221.583313 781.666687 C 217.416672 781.666687 213.249985 785.833374 213.249985 790 C 213.249985 794.166626 217.416672 798.333313 221.583313 798.333313 C 225.75 798.333313 229.916687 794.166626 229.916687 790 C 229.916687 785.833374 225.75 781.666687 221.583313 781.666687 Z"/>
            </g>
            <g id="XMLID1296">
                <path id="XMLID778" fill="#c0dceb" stroke="none" d="M 550.749939 790 C 550.749939 794.602417 547.019043 798.333313 542.416687 798.333313 C 537.81427 798.333313 534.083313 794.602417 534.083313 790 C 534.083313 785.397583 537.81427 781.666687 542.416687 781.666687 C 547.019043 781.666687 550.749939 785.397583 550.749939 790 Z"/>
                <path id="XMLID777" fill="#45413c" stroke="none" d="M 542.416687 781.666687 C 538.25 781.666687 534.083313 785.833374 534.083313 790 C 534.083313 794.166626 538.25 798.333313 542.416687 798.333313 C 546.583313 798.333313 550.749939 794.166626 550.749939 790 C 550.749939 785.833374 546.583313 781.666687 542.416687 781.666687 Z"/>
            </g>
            <g id="XMLID1295">
                <path id="XMLID775" fill="#c0dceb" stroke="none" d="M 661.166687 621.25 C 661.166687 625.852417 657.435669 629.583374 652.833313 629.583374 C 648.230957 629.583374 644.499939 625.852417 644.499939 621.25 C 644.499939 616.647644 648.230957 612.916626 652.833313 612.916626 C 657.435669 612.916626 661.166687 616.647644 661.166687 621.25 Z"/>
                <path id="XMLID774" fill="#45413c" stroke="none" d="M 652.833313 612.916626 C 648.666626 612.916626 644.499939 617.083374 644.499939 621.25 C 644.499939 625.416626 648.666626 629.583374 652.833313 629.583374 C 657 629.583374 661.166687 625.416626 661.166687 621.25 C 661.166687 615 657 612.916626 652.833313 612.916626 Z"/>
            </g>
            <g id="XMLID1294">
                <path id="XMLID754" fill="#c0dceb" stroke="none" d="M 432 621.25 C 432 625.852417 428.269073 629.583374 423.666656 629.583374 C 419.06427 629.583374 415.333344 625.852417 415.333344 621.25 C 415.333344 616.647644 419.06427 612.916626 423.666656 612.916626 C 428.269073 612.916626 432 616.647644 432 621.25 Z"/>
                <path id="XMLID753" fill="#45413c" stroke="none" d="M 423.666656 612.916626 C 419.499969 612.916626 415.333344 617.083374 415.333344 621.25 C 415.333344 625.416626 419.499969 629.583374 423.666656 629.583374 C 427.833344 629.583374 432 625.416626 432 621.25 C 432 615 429.916656 612.916626 423.666656 612.916626 Z"/>
            </g>
            <g id="XMLID1293">
                <path id="XMLID751" fill="#c0dceb" stroke="none" d="M 432 375.416687 C 432 380.019043 428.269073 383.75 423.666656 383.75 C 419.06427 383.75 415.333344 380.019043 415.333344 375.416687 C 415.333344 370.81427 419.06427 367.083313 423.666656 367.083313 C 428.269073 367.083313 432 370.81427 432 375.416687 Z"/>
                <path id="XMLID750" fill="#45413c" stroke="none" d="M 423.666656 367.083313 C 419.499969 367.083313 415.333344 371.25 415.333344 375.416687 C 415.333344 379.583374 419.499969 383.75 423.666656 383.75 C 427.833344 383.75 432 379.583374 432 375.416687 C 432 371.25 429.916656 367.083313 423.666656 367.083313 Z"/>
            </g>
            <path id="XMLID1292" fill="none" stroke="#45413c" stroke-width="20.833334" stroke-linecap="round" stroke-linejoin="round" d="M 373.666687 281.666687 L 373.666687 231.666626 L 467.416687 206.666687 L 356.999969 104.583313 L 517.416687 146.25 L 544.5 92.083374"/>
            <path id="XMLID1291" fill="#ff6242" stroke="#45413c" stroke-width="20.833334" stroke-linecap="round" stroke-linejoin="round" d="M 600.75 52.5 C 600.75 75.511841 582.095154 94.166687 559.083313 94.166687 C 536.071472 94.166687 517.416687 75.511841 517.416687 52.5 C 517.416687 29.488159 536.071472 10.833313 559.083313 10.833313 C 582.095154 10.833313 600.75 29.488159 600.75 52.5 Z"/>
            <path id="XMLID1290" fill="none" stroke="#45413c" stroke-width="20.833334" stroke-linecap="round" stroke-linejoin="round" d="M 686.166626 671.25 L 448.666687 671.25 C 411.166656 671.25 382 640 382 604.583374 L 382 342.083313 L 584.083374 342.083313 C 640.333374 342.083313 686.166626 387.916687 686.166626 444.166656 L 686.166626 671.25 Z"/>
            <path id="XMLID1287" fill="none" stroke="#45413c" stroke-width="20.833334" stroke-linecap="round" stroke-linejoin="round" d="M 542.416687 450.416687 L 542.416687 477.5"/>
            <path id="XMLID1273" fill="none" stroke="#45413c" stroke-width="20.833334" stroke-linecap="round" stroke-linejoin="round" d="M 602.833313 510.833344 L 575.75 510.833344"/>
            <path id="XMLID1272" fill="none" stroke="#45413c" stroke-width="20.833334" stroke-linecap="round" stroke-linejoin="round" d="M 542.416687 569.166626 L 542.416687 544.166687"/>
            <path id="XMLID1271" fill="none" stroke="#45413c" stroke-width="20.833334" stroke-linecap="round" stroke-linejoin="round" d="M 484.083313 510.833344 L 509.083344 510.833344"/>
            <path id="XMLID1270" fill="#adc4d9" stroke="#45413c" stroke-width="20.833334" stroke-linecap="round" stroke-linejoin="round" d="M 500.750031 342.083313 L 263.249969 342.083313 C 263.249969 308.75 290.333344 283.749939 321.583344 283.749939 L 440.333313 283.749939 C 473.666656 281.666687 500.750031 308.75 500.750031 342.083313 Z"/>
            <path id="XMLID1269" fill="#ffe500" stroke="#45413c" stroke-width="20.833334" stroke-linecap="round" stroke-linejoin="round" d="M 702.833374 765 L 686.166626 765 L 686.166626 494.166687 L 702.833374 494.166687 C 729.916687 494.166687 752.833313 517.083313 752.833313 544.166687 L 752.833313 712.916687 C 754.916687 742.083313 732 765 702.833374 765 Z"/>
            <path id="XMLID1268" fill="#ffe500" stroke="#45413c" stroke-width="20.833334" stroke-linecap="round" stroke-linejoin="round" d="M 61.166676 765 L 77.833328 765 L 77.833328 494.166687 L 61.166676 494.166687 C 34.083336 494.166687 11.166662 517.083313 11.166662 544.166687 L 11.166662 712.916687 C 9.083331 742.083313 31.999996 765 61.166676 765 Z"/>
        </g>
    </g>
</svg>
