<?xml version="1.0" encoding="UTF-8"?>
<!-- Generated by Pixelmator Pro 3.5.6 -->
<svg width="446" height="640" viewBox="0 0 446 640" xmlns="http://www.w3.org/2000/svg">
    <path id="Path" fill="#6b6ba5" stroke="none" d="M 445.200012 323.200012 C 445.200012 317.799988 440.799988 313.5 435.5 313.5 L 422.700012 313.5 C 417.599976 264.400024 374.899994 226 324.300018 228.399994 C 319.399994 178.799988 277.5 139.899963 226.699982 139.899963 C 177 139.899963 136.399994 176.100006 129.699997 224.100006 C 120.599998 222.900024 111.400002 223.099976 102.599991 224.5 L 46.999996 7.299988 C 45.700005 2.099976 40.399998 -1 35.200001 0.299988 C 29.999998 1.599976 26.900003 6.899963 28.200005 12.099976 L 83.799995 229.5 C 48.900002 242.799988 24.800003 275.800018 23 313.5 L 10.5 313.5 C 5.200003 313.5 0.799997 317.799988 0.799997 323.200012 C 0.799997 441.600006 94.100006 538.700012 210.999985 545 L 210.999985 620.600037 L 157.300003 620.600037 C 151.899994 620.600037 147.599991 624.900024 147.599991 630.299988 C 147.599991 635.700012 151.899994 640 157.300003 640 L 288.800018 640 C 294.100006 640 298.5 635.700012 298.5 630.299988 C 298.5 624.900024 294.100006 620.600037 288.800018 620.600037 L 230.400009 620.600037 L 230.400009 545.099976 C 349.5 541.200012 445.200012 443.200012 445.200012 323.200012 Z M 316.600006 248.600006 C 320.700012 247.900024 324.799988 247.600037 328.800018 247.600037 C 367.299988 247.600037 398.399994 276.5 403.200012 313.5 L 253.499985 313.5 C 253.800018 311.200012 254.399994 309.100006 254.899979 306.900024 C 255.200012 305.200012 255.5 303.399994 255.999985 301.799988 C 256.600006 299.700012 257.5 297.799988 258.299988 295.800018 C 258.999969 294 259.600006 292.200012 260.400024 290.5 C 261.199982 288.700012 262.399994 287.099976 263.399994 285.400024 C 264.399994 283.600006 265.299988 281.799988 266.499969 280.100037 C 267.599976 278.5 268.899994 277.200012 270.099976 275.700012 C 271.399994 274.100006 272.599976 272.299988 274.100006 270.800018 C 275.400024 269.5 277 268.300018 278.399994 267 C 279.899994 265.599976 281.399994 264.100006 283.099976 262.900024 C 284.699982 261.600006 286.600006 260.599976 288.299988 259.5 C 290 258.5 291.499969 257.299988 293.299988 256.399994 C 295.599976 255.100037 298.099976 254.199982 300.599976 253.200012 C 301.899994 252.700012 303.099976 252 304.5 251.600006 C 308.399994 250.299988 312.399994 249.299988 316.499969 248.600006 C 316.499969 248.600006 316.499969 248.600006 316.600006 248.600006 Z M 226.699982 159.299988 C 267.799988 159.299988 301.600006 191 305.099976 231.200012 C 304.5 231.299988 303.999969 231.5 303.5 231.600006 C 301.300018 232.200012 299.199982 232.799988 297.100006 233.5 C 296.100006 233.899994 295.200012 234.299988 294.300018 234.599976 C 292.599976 235.200012 291 235.899994 289.399994 236.600006 C 288.399994 237 287.399994 237.5 286.399994 238 C 285 238.700012 283.5 239.400024 282.100006 240.200012 C 281.100006 240.700012 280.200012 241.299988 279.199982 241.900024 C 277.799988 242.700012 276.499969 243.5 275.200012 244.400024 C 274.300018 245 273.299988 245.700012 272.399994 246.399994 C 271.199982 247.299988 270 248.200012 268.800018 249.100006 C 267.900024 249.899963 267 250.599976 266.100006 251.399994 C 264.899994 252.399963 263.800018 253.399994 262.799988 254.400024 C 261.899994 255.200012 261.100006 256 260.200012 256.900024 C 259.199982 257.900024 258.200012 259 257.199982 260.100037 C 256.399994 261 255.699997 261.900024 254.899979 262.799988 C 253.999985 264 253.099976 265.100037 252.199982 266.299988 C 251.499985 267.299988 250.799988 268.200012 250.099991 269.199982 C 249.300003 270.400024 248.499985 271.699982 247.700012 273 C 247.099991 274 246.399994 275 245.799988 276 C 245.099991 277.299988 244.399994 278.600006 243.699997 280 C 243.199997 281 242.700012 282.099976 242.199982 283.099976 C 241.499985 284.5 240.999985 285.899994 240.400009 287.299988 C 239.899979 288.399994 239.500015 289.5 239.100006 290.599976 C 238.600006 292.099976 238.099976 293.600006 237.599991 295.100037 C 237.300003 296.200012 237.000015 297.299988 236.699982 298.399994 C 236.199997 300 235.900009 301.600006 235.599976 303.200012 C 235.299988 304.299988 235.099991 305.299988 234.899979 306.399994 C 234.599991 308.200012 234.300003 310.100037 234.100006 312 C 234.100006 312.5 233.999985 313 233.899994 313.5 L 212.400009 313.5 C 212.400009 312.399963 212.300003 311.299988 212.300003 310.299988 C 212.199997 309.400024 212.099991 308.600006 212 307.700012 C 211.799988 306 211.600006 304.299988 211.300003 302.5 C 211.099991 301.5 210.900009 300.599976 210.699997 299.599976 C 210.399994 298.099976 210.099991 296.5 209.699997 295 C 209.5 294 209.200012 293 208.899994 291.900024 C 208.499985 290.5 208.100006 289.100006 207.599991 287.700012 C 207.199997 286.699982 206.799988 285.700012 206.5 284.599976 C 205.900009 283.300018 205.399994 281.900024 204.900009 280.599976 C 204.399994 279.599976 204 278.600006 203.499985 277.600037 C 202.899994 276.299988 202.300003 275.100037 201.600006 273.799988 C 201.099991 272.799988 200.600006 271.900024 200 271 C 199.299988 269.700012 198.599991 268.5 197.799988 267.299988 C 197.199997 266.399994 196.600006 265.5 195.999985 264.599976 C 195.199997 263.399994 194.399994 262.200012 193.499985 261.100006 C 192.899994 260.200012 192.199997 259.400024 191.600006 258.5 C 190.699997 257.399963 189.699997 256.299988 188.800003 255.299988 C 188.100006 254.5 187.400009 253.700012 186.600006 252.900024 C 185.600006 251.799988 184.599991 250.800018 183.499985 249.799988 C 182.799988 249.100006 182 248.300018 181.300003 247.600037 C 180.199997 246.600006 179 245.700012 177.899994 244.799988 C 177.099991 244.100006 176.300003 243.399994 175.5 242.799988 C 174.299988 241.900024 173 241 171.799988 240.200012 C 170.900009 239.599976 170.099991 239 169.299988 238.399994 C 168 237.600037 166.600006 236.799988 165.299988 236 C 164.399994 235.5 163.599991 235 162.699997 234.5 C 161.300003 233.799988 159.800003 233.099976 158.300003 232.399963 C 157.400009 232 156.600006 231.5 155.699997 231.200012 C 154 230.400024 152.099991 229.700012 150.299988 229 C 149.699997 228.799988 149.200012 228.600006 148.599991 228.399994 C 153.300003 189.100006 186.300003 159.299988 226.699982 159.299988 Z M 98.099998 245.200012 C 110.000008 241.900024 123.499992 241.799988 135.999985 244.799988 L 135.999985 244.899963 L 136.300003 244.899963 C 140 245.899994 143.599991 247.099976 147.099991 248.600006 C 147.300003 248.700012 147.599991 248.799988 147.899994 248.899994 C 151.199997 250.299988 154.399994 252.099976 157.5 254 C 157.899994 254.199982 158.199997 254.400024 158.599991 254.599976 C 161.5 256.5 164.299988 258.600006 167 260.899994 C 167.300003 261.200012 167.699997 261.5 168.100006 261.900024 C 170.600006 264.199982 173 266.600006 175.199997 269.299988 C 175.600006 269.700012 175.900009 270 176.199997 270.400024 C 178.400009 273.099976 180.299988 275.899994 182.099991 278.799988 C 182.400009 279.299988 182.699997 279.700012 183 280.200012 C 184.699997 283.099976 186.199997 286.200012 187.5 289.400024 C 187.699997 289.899963 187.899994 290.400024 188.100006 290.899994 C 189.299988 294.100006 190.399994 297.399963 191.199997 300.800018 C 191.300003 301.299988 191.399994 301.799988 191.5 302.299988 C 192.199997 305.800018 192.699997 309.299988 193 312.900024 L 193 313.5 L 42.300003 313.5 C 44.299999 281.299988 66.600006 253.600006 98.099998 245.200012 Z M 223 525.900024 C 114.399994 525.900024 25.5 440.200012 20.5 332.900024 L 425.5 332.900024 C 420.5 440.200012 331.600006 525.900024 223 525.900024 Z"/>
    <path id="path1" fill="#e6edf6" stroke="none" d="M 425.5 332.900024 C 420.5 440.200012 331.600006 525.900024 223 525.900024 C 114.399994 525.900024 25.5 440.200012 20.5 332.900024 L 425.5 332.900024 Z"/>
    <path id="path2" fill="#c8d5e4" stroke="none" d="M 425.5 332.900024 C 420.5 440.200012 331.600006 525.900024 223 525.900024 C 287.799988 525.900024 340.799988 440.200012 343.800018 332.900024 L 425.5 332.900024 Z M 223 525.900024 C 114.399994 525.900024 25.5 440.200012 20.5 332.900024 L 102.199997 332.900024 C 105.199997 440.200012 158.200012 525.900024 223 525.900024 Z"/>
    <path id="path3" fill="#ffdc7c" stroke="none" d="M 193 312.899994 L 193 313.499969 L 42.300003 313.499969 C 44.300003 281.299957 66.600006 253.600006 98.100006 245.200012 C 110.000008 241.900024 123.499992 241.799988 136 244.799988 L 136 244.899963 L 136.300003 244.899963 C 140.000015 245.899994 143.599991 247.099976 147.100006 248.600006 C 147.300003 248.700012 147.599991 248.799957 147.899994 248.899994 C 151.199997 250.299988 154.399994 252.099976 157.500015 254 C 157.899994 254.199982 158.200012 254.400024 158.599991 254.599976 C 161.5 256.5 164.299988 258.600006 167 260.899994 C 167.300003 261.200012 167.699997 261.5 168.100006 261.900024 C 170.600006 264.199982 173 266.600006 175.199997 269.299988 C 175.600006 269.700012 175.900009 270 176.199997 270.399994 C 178.400009 273.099976 180.300003 275.899994 182.100006 278.799957 C 182.400009 279.299988 182.699997 279.700012 183 280.200012 C 184.699997 283.099976 186.199997 286.200012 187.500015 289.400024 C 187.699997 289.899963 187.899994 290.399994 188.100006 290.899994 C 189.299988 294.100006 190.399994 297.399963 191.199997 300.800018 C 191.300003 301.299957 191.400009 301.799988 191.5 302.299988 C 192.199997 305.800018 192.699997 309.299988 193 312.899994 Z"/>
    <path id="path4" fill="#f9e2dc" stroke="none" d="M 403.200012 313.5 L 253.499985 313.5 C 253.800018 311.200043 254.399994 309.100006 254.899979 306.900024 C 255.200012 305.200012 255.5 303.399994 255.999985 301.800018 C 256.600006 299.700012 257.5 297.799988 258.299988 295.800018 C 258.999969 294.000031 259.600006 292.200012 260.400024 290.5 C 261.199982 288.700043 262.399994 287.100006 263.399994 285.400024 C 264.399994 283.600006 265.299988 281.800018 266.499969 280.100037 C 267.599976 278.5 268.899994 277.200012 270.099976 275.700012 C 271.399994 274.100006 272.599976 272.299988 274.100006 270.800018 C 275.400024 269.5 277 268.300018 278.399994 267 C 279.899994 265.599976 281.399994 264.100006 283.099976 262.900024 C 284.699982 261.600006 286.600006 260.599976 288.299988 259.5 C 290 258.5 291.499969 257.299988 293.299988 256.399994 C 295.599976 255.100037 298.099976 254.199982 300.599976 253.200012 C 301.899994 252.700012 303.099976 252 304.5 251.600006 C 308.399994 250.299988 312.399994 249.300018 316.499969 248.600006 C 316.499969 248.600006 316.499969 248.600006 316.600006 248.600006 C 320.700012 247.900024 324.799988 247.600037 328.800018 247.600037 C 367.299988 247.600037 398.399994 276.500031 403.200012 313.5 Z"/>
    <path id="path5" fill="#b1f1a8" stroke="none" d="M 305.100006 231.200012 C 304.500031 231.299957 304 231.5 303.5 231.600006 C 301.300018 232.200012 299.199982 232.799988 297.100006 233.499969 C 296.100006 233.899994 295.200012 234.299988 294.300018 234.599976 C 292.600006 235.200012 291 235.899994 289.399994 236.600006 C 288.400024 237 287.399994 237.5 286.399994 238 C 285 238.700012 283.5 239.400024 282.100006 240.200012 C 281.100006 240.699982 280.200012 241.299957 279.199982 241.900024 C 277.799988 242.700012 276.5 243.499969 275.200012 244.400024 C 274.300018 245 273.299988 245.699982 272.399994 246.399994 C 271.200012 247.299988 270 248.199982 268.800018 249.100006 C 267.900024 249.899963 267.000031 250.599976 266.100006 251.399994 C 264.899994 252.399963 263.800018 253.399994 262.799988 254.400024 C 261.899994 255.200012 261.100006 255.999969 260.200012 256.900024 C 259.199982 257.899994 258.200012 259 257.199982 260.100006 C 256.399994 260.999969 255.700012 261.900024 254.899994 262.799988 C 253.999985 264 253.099991 265.100006 252.199982 266.299957 C 251.499985 267.299988 250.799988 268.199982 250.099991 269.199982 C 249.300003 270.399994 248.499985 271.699982 247.700012 273 C 247.099991 274 246.399994 275 245.799988 275.999969 C 245.099991 277.299988 244.399994 278.600006 243.699997 280 C 243.199997 280.999969 242.700012 282.099976 242.199982 283.099976 C 241.499985 284.5 240.999985 285.899994 240.400009 287.299988 C 239.899979 288.399994 239.500015 289.5 239.100006 290.599976 C 238.600006 292.099976 238.099976 293.600006 237.599991 295.100006 C 237.300003 296.200012 237.000015 297.299988 236.699982 298.399994 C 236.199997 300 235.900009 301.600006 235.599976 303.199982 C 235.299988 304.299988 235.099991 305.299988 234.899979 306.399994 C 234.599991 308.199982 234.300003 310.100006 234.100006 312 C 234.100006 312.5 233.999985 313 233.899994 313.499969 L 212.400009 313.499969 C 212.400009 312.399963 212.300003 311.299957 212.300003 310.299988 C 212.199997 309.400024 212.099991 308.600006 212 307.700012 C 211.799988 305.999969 211.600006 304.299988 211.300003 302.5 C 211.099991 301.5 210.900009 300.599976 210.699997 299.599976 C 210.399994 298.099976 210.099991 296.5 209.699997 295 C 209.5 294 209.200012 293 208.899994 291.900024 C 208.499985 290.5 208.100006 289.100006 207.599991 287.700012 C 207.199997 286.699982 206.799988 285.699982 206.5 284.599976 C 205.900009 283.300018 205.399994 281.900024 204.900009 280.599976 C 204.399994 279.599976 204 278.600006 203.499985 277.600006 C 202.899994 276.299957 202.300003 275.100006 201.600006 273.799957 C 201.099991 272.799988 200.600006 271.900024 200 270.999969 C 199.299988 269.700012 198.599991 268.499969 197.799988 267.299988 C 197.199997 266.399994 196.600006 265.5 195.999985 264.599976 C 195.199997 263.399994 194.399994 262.200012 193.499985 261.100006 C 192.899994 260.200012 192.199997 259.400024 191.600006 258.499969 C 190.699997 257.399963 189.699997 256.299957 188.800003 255.299988 C 188.100006 254.5 187.400009 253.700012 186.600006 252.899994 C 185.600006 251.799988 184.599991 250.800018 183.499985 249.799988 C 182.799988 249.100006 182 248.300018 181.300003 247.600006 C 180.199997 246.600006 179 245.699982 177.899994 244.799988 C 177.099991 244.100006 176.300003 243.399994 175.5 242.799988 C 174.299988 241.900024 173 240.999969 171.799988 240.200012 C 170.900009 239.599976 170.099991 239 169.299988 238.399994 C 168 237.600006 166.600006 236.799988 165.299988 235.999969 C 164.399994 235.5 163.599991 235 162.699997 234.5 C 161.300003 233.799957 159.800003 233.099976 158.300003 232.399963 C 157.400009 232 156.600006 231.5 155.699997 231.200012 C 154 230.399994 152.099991 229.700012 150.299988 229 C 149.699997 228.799957 149.200012 228.600006 148.599991 228.399994 C 153.300003 189.100006 186.300003 159.299988 226.699982 159.299988 C 267.799988 159.299988 301.600006 190.999969 305.100006 231.200012 Z"/>
    <path id="path6" fill="#ecc25d" stroke="none" d="M 193 312.899994 L 193 313.499969 L 188.400009 313.499969 L 188.400009 313.399994 C 188.100006 312.899994 187.899994 312.399963 187.800003 311.900024 C 186.5 308.700012 184.900009 305.599976 183.200012 302.700012 C 182.899994 302.200012 182.599991 301.799988 182.300003 301.299957 C 180.5 298.399994 178.599991 295.599976 176.5 292.899994 C 176.099991 292.5 175.900009 292.200012 175.399994 291.799988 C 173.200012 289.100006 170.900009 286.699982 168.400009 284.400024 C 167.899994 284 167.500015 283.700012 167.300003 283.399994 C 164.5 281.100006 161.700012 279 158.800003 277.099976 C 158.5 276.900024 158.100006 276.699982 157.800003 276.5 C 154.699997 274.599976 151.5 272.799988 148.100006 271.399994 C 147.899994 271.299957 147.500015 271.200012 147.300003 271.100006 C 143.800003 269.599976 140.300003 268.399994 136.600006 267.399963 L 136.199997 267.399963 L 136.199997 267.299988 C 123.699997 264.299988 110.299995 264.400024 98.400009 267.700012 C 74.5 274.100006 55.900002 291.5 47.399998 313.499969 L 42.300003 313.499969 C 44.300003 281.299957 66.600006 253.600006 98.100006 245.200012 C 110.000008 241.900024 123.499992 241.799988 136 244.799988 L 136 244.899963 L 136.300003 244.899963 C 140.000015 245.899994 143.599991 247.099976 147.100006 248.600006 C 147.300003 248.700012 147.599991 248.799957 147.899994 248.899994 C 151.199997 250.299988 154.399994 252.099976 157.500015 254 C 157.899994 254.199982 158.200012 254.400024 158.599991 254.599976 C 161.5 256.5 164.299988 258.600006 167 260.899994 C 167.300003 261.200012 167.699997 261.5 168.100006 261.900024 C 170.600006 264.199982 173 266.600006 175.199997 269.299988 C 175.600006 269.700012 175.900009 270 176.199997 270.399994 C 178.400009 273.099976 180.300003 275.899994 182.100006 278.799957 C 182.400009 279.299988 182.699997 279.700012 183 280.200012 C 184.699997 283.099976 186.199997 286.200012 187.500015 289.400024 C 187.699997 289.899963 187.899994 290.399994 188.100006 290.899994 C 189.299988 294.100006 190.399994 297.399963 191.199997 300.800018 C 191.300003 301.299957 191.400009 301.799988 191.5 302.299988 C 192.199997 305.800018 192.699997 309.299988 193 312.899994 Z"/>
    <path id="path7" fill="#ffcbcb" stroke="none" d="M 403.200012 313.5 L 396.800018 313.5 C 384.899994 287.900024 359.300018 270.100037 329.100006 270.100037 C 325 270.100037 321 270.400024 316.800018 271.100006 C 316.699982 271.100006 316.699982 271.100006 316.699982 271.100006 C 312.599976 271.800018 308.600006 272.799988 304.799988 274.100006 C 303.399994 274.5 302.199982 275.200012 300.899994 275.700012 C 298.399994 276.699982 295.899994 277.600037 293.600006 278.899994 C 291.699982 279.799988 290.299988 281 288.600006 282 C 286.800018 283.099976 284.899994 284.100006 283.399994 285.400024 C 281.699982 286.600006 280.099976 288.099976 278.600006 289.5 C 277.299988 290.800018 275.599976 292 274.300018 293.300018 C 272.900024 294.799988 271.699982 296.600006 270.400024 298.200012 C 269.199982 299.700012 267.900024 301 266.699982 302.600037 C 265.5 304.300018 264.699982 306.100006 263.600006 307.900024 C 262.599976 309.600006 261.499969 311.200043 260.599976 313 C 260.5 313.200012 260.400024 313.300018 260.400024 313.5 L 253.499985 313.5 C 253.800018 311.200043 254.399994 309.100006 254.899979 306.900024 C 255.200012 305.200012 255.5 303.399994 255.999985 301.800018 C 256.600006 299.700012 257.5 297.799988 258.299988 295.800018 C 258.999969 294.000031 259.600006 292.200012 260.400024 290.5 C 261.199982 288.700043 262.399994 287.100006 263.399994 285.400024 C 264.399994 283.600006 265.299988 281.800018 266.499969 280.100037 C 267.599976 278.5 268.899994 277.200012 270.099976 275.700012 C 271.399994 274.100006 272.599976 272.299988 274.100006 270.800018 C 275.400024 269.5 277 268.300018 278.399994 267 C 279.899994 265.599976 281.399994 264.100006 283.099976 262.900024 C 284.699982 261.600006 286.600006 260.599976 288.299988 259.5 C 290 258.5 291.499969 257.299988 293.299988 256.399994 C 295.599976 255.100037 298.099976 254.199982 300.599976 253.200012 C 301.899994 252.700012 303.099976 252 304.5 251.600006 C 308.399994 250.299988 312.399994 249.300018 316.499969 248.600006 C 316.499969 248.600006 316.499969 248.600006 316.600006 248.600006 C 320.700012 247.900024 324.799988 247.600037 328.800018 247.600037 C 367.299988 247.600037 398.399994 276.500031 403.200012 313.5 Z"/>
    <path id="path8" fill="#98ea8b" stroke="none" d="M 305.100006 231.200012 C 304.500031 231.299957 304 231.5 303.5 231.600006 C 302.399994 231.900024 301.399994 232.200012 300.400024 232.5 C 289.100006 202.899994 260.400024 181.800018 226.899994 181.800018 C 193.899994 181.800018 165.800003 201.699982 154.100006 230.5 C 152.899994 230 151.600006 229.5 150.299988 229 C 149.699997 228.799957 149.200012 228.600006 148.599991 228.399994 C 153.300003 189.100006 186.300003 159.300018 226.699982 159.300018 C 267.799988 159.300018 301.600006 191 305.100006 231.200012 Z"/>
</svg>
