<?xml version="1.0" encoding="UTF-8"?>
<!-- Generated by Pixelmator Pro 3.5.6 -->
<svg width="27" height="24" viewBox="0 0 27 24" xmlns="http://www.w3.org/2000/svg">
    <g id="Group">
        <path id="Path" fill="#000000" stroke="none" d="M 12.299999 23.42 C 7.066074 23.416683 2.504344 19.855808 1.230584 14.779243 C -0.043176 9.702677 2.297115 4.410019 6.909495 1.936165 C 11.521875 -0.537685 17.225576 0.440578 20.75 4.310001 C 20.844656 4.403885 20.8979 4.531681 20.8979 4.665001 C 20.8979 4.798317 20.844656 4.926117 20.75 5.02 C 20.657837 5.114063 20.531691 5.167072 20.4 5.167072 C 20.268311 5.167072 20.142164 5.114063 20.049999 5.02 C 16.674004 1.306595 11.130615 0.527252 6.861595 3.165848 C 2.592574 5.80444 0.81091 11.111248 2.622795 15.791397 C 4.434681 20.471544 9.325294 23.195229 14.258163 22.271376 C 19.191034 21.347523 22.764551 17.038635 22.76 12.02 C 22.763042 10.915714 22.58744 9.818207 22.24 8.77 C 22.154396 8.493858 22.308857 8.200603 22.584999 8.115 C 22.861143 8.029396 23.154396 8.183857 23.24 8.459999 C 23.581514 9.608204 23.743427 10.802313 23.719999 12 C 23.714487 18.304806 18.604807 23.414486 12.299999 23.42 Z"/>
        <path id="path1" fill="#000000" stroke="none" d="M 12.299999 16.620001 C 12.169537 16.620783 12.043934 16.570543 11.950001 16.48 L 6.17 10.690001 C 5.976701 10.4967 5.976701 10.1833 6.17 9.99 C 6.363299 9.7967 6.676701 9.7967 6.87 9.99 L 12.299999 15.41 L 25.74 1.59 C 25.937813 1.398216 26.252186 1.398216 26.450001 1.59 C 26.544655 1.683884 26.5979 1.81168 26.5979 1.945 C 26.5979 2.07832 26.544655 2.206116 26.450001 2.299999 L 12.66 16.469999 C 12.569719 16.567139 12.442604 16.621616 12.309999 16.620001 Z"/>
    </g>
</svg>
